<?xml version="1.0" standalone="no"?>
<!DOCTYPE svg PUBLIC "-//W3C//DTD SVG 20010904//EN"
 "http://www.w3.org/TR/2001/REC-SVG-20010904/DTD/svg10.dtd">
<svg version="1.0" xmlns="http://www.w3.org/2000/svg"
 width="700.000000pt" height="700.000000pt" viewBox="0 0 700.000000 700.000000"
 preserveAspectRatio="xMidYMid meet">
<metadata>
Created by potrace 1.14, written by Peter Selinger 2001-2017
</metadata>
<g transform="translate(0.000000,700.000000) scale(0.100000,-0.100000)"
fill="#000000" stroke="none">
<path d="M3460 4535 c-253 -35 -416 -91 -878 -301 -481 -220 -707 -295 -967
-322 -104 -10 -340 -7 -420 7 -39 7 -83 14 -100 17 -29 5 -44 8 -86 20 -20 6
-20 6 2 -38 54 -107 248 -379 357 -502 47 -53 223 -229 282 -282 182 -164 455
-336 694 -438 155 -67 263 -101 441 -142 21 -5 161 -29 230 -40 83 -12 392
-11 500 2 342 41 665 160 1092 403 79 45 146 81 150 81 3 0 14 6 22 14 32 28
188 103 251 121 93 27 261 28 364 4 141 -34 312 -132 465 -268 68 -59 87 -71
116 -71 39 0 75 28 75 59 0 21 -41 73 -130 167 -291 303 -682 510 -1200 633
-318 75 -451 91 -730 86 -113 -2 -216 -5 -230 -8 -14 -3 -43 -8 -65 -11 -81
-11 -202 -35 -285 -56 -47 -12 -92 -23 -100 -25 -8 -2 -58 -15 -110 -30 -106
-29 -349 -90 -395 -99 -32 -6 -79 -13 -165 -26 -59 -8 -362 -6 -420 4 -37 6
-111 19 -120 21 -3 1 -40 9 -83 19 -42 10 -80 23 -84 29 -3 6 -1 7 5 3 21 -13
312 -7 412 9 14 2 45 6 70 10 281 41 616 131 975 262 83 30 159 58 170 63 25
11 161 47 206 55 19 3 59 10 89 16 70 14 415 19 500 8 126 -17 175 -25 240
-40 25 -6 52 -12 60 -14 136 -28 470 -151 549 -202 28 -18 25 -12 -33 67 -56
77 -197 221 -286 293 -277 223 -627 379 -972 433 -16 2 -43 7 -60 10 -72 12
-308 11 -398 -1z"/>
</g>
</svg>
