<svg width="343" height="103" viewBox="0 0 343 103" fill="none" xmlns="http://www.w3.org/2000/svg">
<path fill-rule="evenodd" clip-rule="evenodd" d="M209 27H308V82H209V27ZM287.086 72.2318C284.492 72.2318 282.253 71.7205 280.369 70.698C278.496 69.6646 277.054 68.1954 276.042 66.2901C275.041 64.3742 274.541 62.0976 274.541 59.4605C274.541 56.8987 275.046 54.6598 276.058 52.7438C277.07 50.8171 278.496 49.3209 280.337 48.2552C282.177 47.1789 284.346 46.6407 286.844 46.6407C288.609 46.6407 290.223 46.9151 291.687 47.4641C293.151 48.0131 294.416 48.8257 295.482 49.9021C296.547 50.9785 297.376 52.3079 297.968 53.8901C298.56 55.4617 298.856 57.2646 298.856 59.299V61.2688H282.323V61.4787C282.323 62.4905 282.522 63.3785 282.92 64.1427C283.318 64.8962 283.884 65.4829 284.616 65.9026C285.347 66.3224 286.219 66.5323 287.231 66.5323C287.931 66.5323 288.566 66.4355 289.136 66.2417C289.707 66.048 290.197 65.7627 290.606 65.386C291.015 65.0092 291.321 64.5464 291.526 63.9974L298.775 64.2073C298.474 65.8327 297.812 67.2481 296.789 68.4537C295.778 69.6485 294.448 70.5796 292.801 71.2469C291.155 71.9035 289.249 72.2318 287.086 72.2318ZM282.969 54.536C282.58 55.1694 282.367 55.8852 282.328 56.6834H291.51C291.499 55.8438 291.3 55.0957 290.912 54.4391C290.525 53.7825 289.992 53.2712 289.314 52.9052C288.647 52.5285 287.877 52.3401 287.005 52.3401C286.122 52.3401 285.331 52.5393 284.632 52.9375C283.932 53.325 283.378 53.8579 282.969 54.536ZM270.468 71.7636V38.6969H262.572V71.7636H270.468ZM249.652 71.7636V46.9636H257.547V71.7636H249.652ZM253.607 44.0735C252.499 44.0735 251.546 43.7075 250.75 42.9755C249.953 42.2328 249.555 41.3394 249.555 40.2953C249.555 39.262 249.953 38.3793 250.75 37.6474C251.546 36.9047 252.499 36.5333 253.607 36.5333C254.727 36.5333 255.679 36.9047 256.465 37.6474C257.262 38.3793 257.66 39.262 257.66 40.2953C257.66 41.3394 257.262 42.2328 256.465 42.9755C255.679 43.7075 254.727 44.0735 253.607 44.0735ZM217.8 38.6969V45.1875H227.843V71.7636H235.722V45.1875H245.748V38.6969H217.8Z" fill="#1A1A1A"/>
<path d="M22.3118 77V46.4545H29.6051V58.0135H29.7543C30.0526 57.3175 30.4751 56.6463 31.022 56C31.5788 55.3537 32.2848 54.8267 33.1399 54.419C34.005 54.0014 35.0391 53.7926 36.2422 53.7926C37.8331 53.7926 39.3196 54.2102 40.7017 55.0455C42.0938 55.8807 43.2173 57.1683 44.0724 58.9084C44.9276 60.6484 45.3551 62.8658 45.3551 65.5604C45.3551 68.1555 44.9425 70.3281 44.1172 72.0781C43.3018 73.8281 42.1982 75.1406 40.8061 76.0156C39.424 76.8906 37.8878 77.3281 36.1974 77.3281C35.044 77.3281 34.0447 77.1392 33.1996 76.7614C32.3544 76.3835 31.6435 75.8864 31.0668 75.2699C30.5 74.6534 30.0625 73.9922 29.7543 73.2862H29.5305V77H22.3118ZM29.456 65.5455C29.456 66.7784 29.62 67.8523 29.9482 68.767C30.2862 69.6818 30.7685 70.3928 31.3949 70.8999C32.0312 71.397 32.7919 71.6456 33.6768 71.6456C34.5717 71.6456 35.3324 71.397 35.9588 70.8999C36.5852 70.3928 37.0575 69.6818 37.3757 68.767C37.7038 67.8523 37.8679 66.7784 37.8679 65.5455C37.8679 64.3125 37.7038 63.2436 37.3757 62.3388C37.0575 61.4339 36.5852 60.733 35.9588 60.2358C35.3423 59.7386 34.5817 59.4901 33.6768 59.4901C32.782 59.4901 32.0213 59.7337 31.3949 60.2209C30.7685 60.7081 30.2862 61.4041 29.9482 62.3089C29.62 63.2138 29.456 64.2926 29.456 65.5455ZM56.4703 46.4545V77H49.177V46.4545H56.4703ZM71.8065 77.4325C69.4002 77.4325 67.332 76.9403 65.6019 75.956C63.8817 74.9616 62.5543 73.5795 61.6197 71.8097C60.695 70.0298 60.2326 67.9666 60.2326 65.62C60.2326 63.2635 60.695 61.2003 61.6197 59.4304C62.5543 57.6506 63.8817 56.2685 65.6019 55.2841C67.332 54.2898 69.4002 53.7926 71.8065 53.7926C74.2127 53.7926 76.2759 54.2898 77.9961 55.2841C79.7262 56.2685 81.0536 57.6506 81.9783 59.4304C82.913 61.2003 83.3803 63.2635 83.3803 65.62C83.3803 67.9666 82.913 70.0298 81.9783 71.8097C81.0536 73.5795 79.7262 74.9616 77.9961 75.956C76.2759 76.9403 74.2127 77.4325 71.8065 77.4325ZM71.8512 71.929C72.7262 71.929 73.467 71.6605 74.0735 71.1236C74.68 70.5866 75.1424 69.8409 75.4606 68.8864C75.7887 67.9318 75.9528 66.8281 75.9528 65.5753C75.9528 64.3026 75.7887 63.1889 75.4606 62.2344C75.1424 61.2798 74.68 60.5341 74.0735 59.9972C73.467 59.4602 72.7262 59.1918 71.8512 59.1918C70.9464 59.1918 70.1808 59.4602 69.5543 59.9972C68.9379 60.5341 68.4656 61.2798 68.1374 62.2344C67.8192 63.1889 67.6602 64.3026 67.6602 65.5753C67.6602 66.8281 67.8192 67.9318 68.1374 68.8864C68.4656 69.8409 68.9379 70.5866 69.5543 71.1236C70.1808 71.6605 70.9464 71.929 71.8512 71.929ZM107.117 61.0859L100.42 61.2649C100.351 60.7876 100.162 60.3651 99.8537 59.9972C99.5455 59.6193 99.1428 59.326 98.6456 59.1172C98.1584 58.8984 97.5916 58.7891 96.9453 58.7891C96.1001 58.7891 95.3793 58.9581 94.7827 59.2962C94.196 59.6342 93.9077 60.0916 93.9176 60.6683C93.9077 61.1158 94.0866 61.5036 94.4545 61.8317C94.8324 62.1598 95.5036 62.4233 96.468 62.6222L100.883 63.4574C103.17 63.8949 104.87 64.6207 105.984 65.6349C107.107 66.6491 107.674 67.9915 107.684 69.6619C107.674 71.233 107.207 72.6001 106.282 73.7635C105.367 74.9268 104.114 75.8317 102.523 76.478C100.933 77.1143 99.1129 77.4325 97.0646 77.4325C93.7933 77.4325 91.2131 76.7614 89.3239 75.419C87.4446 74.0668 86.3707 72.2571 86.1023 69.9901L93.3061 69.8111C93.4652 70.6463 93.8778 71.2827 94.544 71.7202C95.2102 72.1577 96.0604 72.3764 97.0945 72.3764C98.0291 72.3764 98.7898 72.2024 99.3764 71.8544C99.9631 71.5064 100.261 71.044 100.271 70.4673C100.261 69.9503 100.033 69.5376 99.5852 69.2294C99.1378 68.9112 98.4368 68.6626 97.4822 68.4837L93.4851 67.723C91.1882 67.3054 89.478 66.5348 88.3544 65.4112C87.2308 64.2777 86.674 62.8359 86.6839 61.0859C86.674 59.5547 87.0817 58.2472 87.907 57.1634C88.7322 56.0696 89.9055 55.2344 91.4268 54.6577C92.9482 54.081 94.7429 53.7926 96.8111 53.7926C99.9134 53.7926 102.359 54.4439 104.149 55.7464C105.939 57.0391 106.928 58.8189 107.117 61.0859ZM131.275 61.0859L124.579 61.2649C124.509 60.7876 124.32 60.3651 124.012 59.9972C123.704 59.6193 123.301 59.326 122.804 59.1172C122.317 58.8984 121.75 58.7891 121.104 58.7891C120.258 58.7891 119.537 58.9581 118.941 59.2962C118.354 59.6342 118.066 60.0916 118.076 60.6683C118.066 61.1158 118.245 61.5036 118.613 61.8317C118.991 62.1598 119.662 62.4233 120.626 62.6222L125.041 63.4574C127.328 63.8949 129.028 64.6207 130.142 65.6349C131.265 66.6491 131.832 67.9915 131.842 69.6619C131.832 71.233 131.365 72.6001 130.44 73.7635C129.525 74.9268 128.273 75.8317 126.682 76.478C125.091 77.1143 123.271 77.4325 121.223 77.4325C117.952 77.4325 115.371 76.7614 113.482 75.419C111.603 74.0668 110.529 72.2571 110.26 69.9901L117.464 69.8111C117.623 70.6463 118.036 71.2827 118.702 71.7202C119.368 72.1577 120.219 72.3764 121.253 72.3764C122.187 72.3764 122.948 72.2024 123.535 71.8544C124.121 71.5064 124.42 71.044 124.43 70.4673C124.42 69.9503 124.191 69.5376 123.743 69.2294C123.296 68.9112 122.595 68.6626 121.64 68.4837L117.643 67.723C115.346 67.3054 113.636 66.5348 112.513 65.4112C111.389 64.2777 110.832 62.8359 110.842 61.0859C110.832 59.5547 111.24 58.2472 112.065 57.1634C112.89 56.0696 114.064 55.2344 115.585 54.6577C117.106 54.081 118.901 53.7926 120.969 53.7926C124.072 53.7926 126.518 54.4439 128.307 55.7464C130.097 57.0391 131.086 58.8189 131.275 61.0859ZM146.127 77.4325C143.721 77.4325 141.652 76.9403 139.922 75.956C138.202 74.9616 136.875 73.5795 135.94 71.8097C135.015 70.0298 134.553 67.9666 134.553 65.62C134.553 63.2635 135.015 61.2003 135.94 59.4304C136.875 57.6506 138.202 56.2685 139.922 55.2841C141.652 54.2898 143.721 53.7926 146.127 53.7926C148.533 53.7926 150.596 54.2898 152.316 55.2841C154.047 56.2685 155.374 57.6506 156.299 59.4304C157.233 61.2003 157.701 63.2635 157.701 65.62C157.701 67.9666 157.233 70.0298 156.299 71.8097C155.374 73.5795 154.047 74.9616 152.316 75.956C150.596 76.9403 148.533 77.4325 146.127 77.4325ZM146.172 71.929C147.047 71.929 147.787 71.6605 148.394 71.1236C149 70.5866 149.463 69.8409 149.781 68.8864C150.109 67.9318 150.273 66.8281 150.273 65.5753C150.273 64.3026 150.109 63.1889 149.781 62.2344C149.463 61.2798 149 60.5341 148.394 59.9972C147.787 59.4602 147.047 59.1918 146.172 59.1918C145.267 59.1918 144.501 59.4602 143.875 59.9972C143.258 60.5341 142.786 61.2798 142.458 62.2344C142.14 63.1889 141.98 64.3026 141.98 65.5753C141.98 66.8281 142.14 67.9318 142.458 68.8864C142.786 69.8409 143.258 70.5866 143.875 71.1236C144.501 71.6605 145.267 71.929 146.172 71.929ZM161.437 77V54.0909H168.372V58.2969H168.626C169.103 56.9048 169.908 55.8061 171.042 55.0007C172.175 54.1953 173.528 53.7926 175.099 53.7926C176.69 53.7926 178.052 54.2003 179.185 55.0156C180.319 55.831 181.04 56.9247 181.348 58.2969H181.587C182.014 56.9347 182.849 55.8459 184.092 55.0305C185.335 54.2053 186.802 53.7926 188.492 53.7926C190.66 53.7926 192.42 54.4886 193.772 55.8807C195.124 57.2628 195.8 59.1619 195.8 61.5781V77H188.507V63.2486C188.507 62.1051 188.214 61.2351 187.627 60.6385C187.04 60.032 186.28 59.7287 185.345 59.7287C184.341 59.7287 183.55 60.0568 182.974 60.7131C182.407 61.3594 182.124 62.2294 182.124 63.3232V77H175.114V63.174C175.114 62.1101 174.825 61.2699 174.249 60.6534C173.672 60.0369 172.911 59.7287 171.967 59.7287C171.33 59.7287 170.768 59.8828 170.281 60.1911C169.794 60.4893 169.411 60.9169 169.133 61.4737C168.864 62.0305 168.73 62.6868 168.73 63.4425V77H161.437Z" fill="#1A1A1A"/>
<path d="M128.024 33.0363C130.573 34.3688 132.272 35.8818 133.129 36.7527C133.52 37.1495 134.2 37.2487 134.689 36.9808C135.204 36.6982 135.317 36.1141 134.943 35.6746C132.302 32.5658 127.112 26.5852 112.643 23.8878C95.2076 20.6376 89.7296 30.6659 74.4784 25.871C74.4784 25.871 82.0302 27.4789 97.86 21.3105C110.389 16.4271 122.982 23.538 123.216 23.6356C123.127 23.4852 117.3 13.8678 103.425 11.8398C87.9884 9.58348 78.9146 24.7083 61.3976 20.1859C61.3976 20.1859 70.26 38.2342 89.8738 41.101C102.821 42.9933 111.225 36.8414 118.434 32.9522C121.259 31.4302 125.016 31.4646 128.024 33.0363Z" fill="#53A935"/>
</svg>
